# xmcd CD database file
#
# Track frame offsets:
#	150
#	21408
#	46798
#	67815
#	89597
#	115797
#	140985
#	158574
#	170571
#	175583
#	200778
#	219725
#	231450
#	254283
#	281938
#
# Disc length: 4019 seconds
#
# Revision: 0
# Processed by: cddbd v1.5.2PL0 Copyright (c) Steve Scherf et al.
# Submitted via: CDex 1.50
#
DISCID=e30fb10f
DTITLE=Triosence - When You Come Home
DYEAR=2008
DGENRE=Jazz
TTITLE0=When You Come Home
TTITLE1=Three Fo(u)r Fun
TTITLE2=Heart In The Head
TTITLE3=Distance Means Nothing
TTITLE4=A Far Off Place
TTITLE5=Little Romance
TTITLE6=Something New
TTITLE7=Long Fall - Part I
TTITLE8=Long Fall - Part II (Strength From Sadness)
TTITLE9=Once I Knew
TTITLE10=What Really Matters
TTITLE11=You Alone
TTITLE12=Sad Truth
TTITLE13=That's How It Is
TTITLE14=Sometime Ago
EXTD=YEAR: 2008
EXTT0=
EXTT1=
EXTT2=
EXTT3=
EXTT4=
EXTT5=
EXTT6=
EXTT7=
EXTT8=
EXTT9=
EXTT10=
EXTT11=
EXTT12=
EXTT13=
EXTT14=
PLAYORDER=
